<?xml version="1.0" encoding="UTF-8"?>
<svg id="Capa_2" data-name="Capa 2" xmlns="http://www.w3.org/2000/svg" xmlns:xlink="http://www.w3.org/1999/xlink" viewBox="0 0 29.93 29.83">
  <defs>
    <style>
      .cls-1 {
        fill: url(#Degradado_sin_nombre_10);
      }
    </style>
    <linearGradient id="Degradado_sin_nombre_10" data-name="Degradado sin nombre 10" x1="35.18" y1="14.91" x2="-14.31" y2="14.91" gradientUnits="userSpaceOnUse">
      <stop offset="0" stop-color="#1c396b"/>
      <stop offset=".07" stop-color="#193e72"/>
      <stop offset=".18" stop-color="#134e88"/>
      <stop offset=".32" stop-color="#0a68aa"/>
      <stop offset=".35" stop-color="#086fb3"/>
      <stop offset=".43" stop-color="#0e5c9a"/>
      <stop offset=".53" stop-color="#144c85"/>
      <stop offset=".63" stop-color="#184176"/>
      <stop offset=".76" stop-color="#1b3b6d"/>
      <stop offset=".95" stop-color="#1c396b"/>
    </linearGradient>
  </defs>
  <g id="Capa_1-2" data-name="Capa 1">
    <path class="cls-1" d="m29.9,14.33c-.02-.24-.02-.47.03-.7-.02-.16-.12-.31-.04-.48,0-.07,0-.13,0-.2-.28-2.05-.94-3.96-1.99-5.75-.82-1.39-1.88-2.58-3.06-3.67-.15-.1-.22-.29-.41-.34h0c-.08-.08-.17-.16-.27-.21-.59-.41-1.17-.82-1.8-1.17-1.46-.81-3.01-1.39-4.66-1.66-.07.05-.15.01-.26.05.07-.03.12-.02.14-.06-.15-.04-.3-.15-.46,0-.29-.14-.6-.09-.9-.12-.8.04-1.6.04-2.4,0-.07,0-.15,0-.22,0-.14-.02-.28.08-.42,0-.06,0-.11,0-.17,0-2.08.27-4.01.98-5.82,2.03-.09.02-.15.07-.22.13h0c-.39.2-.74.46-1.07.74-.09.03-.15.09-.2.17-.31.3-.62.59-.97.84-.08.07-.18.12-.24.22-.09.08-.17.17-.26.25-.22.25-.51.45-.68.74-.23.19-.36.47-.58.66-.27.43-.61.83-.84,1.29h0c-.5.79-.92,1.62-1.22,2.51-.04.13-.08.26-.12.38-.35,1.07-.64,2.14-.71,3.27-.02.05-.03.1-.02.15.04.15.02.3.03.45-.01.1.06.2.02.3.02-.05.01-.1-.02-.15-.03-.01-.06,0-.08.01-.01.01-.01.03,0,.04-.04.54-.04,1.08,0,1.61,0,.03,0,.07,0,.1.04.03.08.02.1-.02.02-.43,0-.86.02-1.29-.03.53.02,1.07-.04,1.6,0,.06,0,.12,0,.17-.01.16.08.32,0,.49.09,1.1.37,2.16.73,3.2.57,1.64,1.44,3.11,2.5,4.47.07.13.18.23.28.34.2.31.5.53.74.8.24.19.38.48.67.62.06.04.12.07.17.11,1.55,1.35,3.31,2.33,5.26,2.94.99.31,1.98.56,3.03.6.12.04.24.02.36.02.79-.03,1.58,0,2.38,0,.12,0,.24.03.36-.02.85-.03,1.66-.23,2.47-.45,1.28-.34,2.46-.89,3.62-1.52.32-.19.68-.34.95-.61.32-.13.53-.42.81-.61h0c.23-.08.33-.34.55-.43.05-.03.08-.08.11-.14.08-.17.22-.28.38-.37.06-.04.13-.07.17-.14.05-.02.06-.06.07-.1.1-.2.25-.36.45-.46.19-.17.36-.36.49-.58.36-.52.75-1.03,1.09-1.56,1.09-1.73,1.79-3.61,2.08-5.64-.04-.07-.02-.14-.02-.21,0-.03,0-.05.03-.06-.05.04-.02.07,0,.1.08-.17.07-.35.07-.53-.02-.72.06-1.43,0-2.15Zm-7.56,7.97c-.61,1.01-1.44,1.75-2.59,2.1-.37.11-.75.18-1.13.26-.08.08-.16.05-.25.02-.52,0-1.05.04-1.57-.04-.95-.14-1.78-.55-2.58-1.06-.15-.1-.35-.14-.44-.31-.16-.17-.34-.32-.55-.41-.02-.02-.04-.03-.06-.05-.1-.11-.2-.23-.34-.29-.04-.04-.09-.08-.13-.12-.36-.32-.71-.66-1.02-1.03-1.11-1.17-1.97-2.52-2.67-3.97-.68-1.42-1.16-2.91-1.31-4.49,0-.04-.02-.09-.04-.13-.08-.13-.03-.28-.04-.41.03-.57-.08-1.16.11-1.72.22-1.07.61-2.08,1.14-3.03.05-.1.12-.19.18-.28.28-.31.49-.69.82-.97l.06-.05c.17-.1.35-.2.48-.35,1.2-.84,2.49-1.14,3.91-.64.65.23.83.49.82,1.14.03.17-.03.32-.09.47-.22,1.04-.45,2.07-.66,3.11-.05.24-.15.47-.14.72-.07.07.02.19-.07.26-.13.31-.22.62-.45.89-.27.31-.61.24-.92.21-.13,0-.28-.1-.43-.13-.52-.12-.53-.12-.54.48.04.13.04.27,0,.4.02.94.39,1.77.82,2.57.84,1.56,1.95,2.93,3.22,4.15.09.09.28.4.32-.05-.04-.17.02-.31.09-.45.23-.61.52-1.16,1.07-1.55.51-.37.73-.37,1.13.13.5.62,1.02,1.22,1.56,1.81.79.84,1.56,1.7,2.28,2.59.07.08.06.16,0,.24Z"/>
  </g>
</svg>